<svg width="74" height="20" viewBox="0 0 74 20" fill="none" xmlns="http://www.w3.org/2000/svg">
<path d="M5.58 15.24C4.47333 15.24 3.50667 15.0133 2.68 14.56C1.85333 14.1067 1.21333 13.46 0.76 12.62C0.306667 11.78 0.08 10.8 0.08 9.68V0.4H3.18V5.86H3.24C3.44 5.58 3.68667 5.34 3.98 5.14C4.28667 4.92667 4.62 4.76667 4.98 4.66C5.35333 4.55333 5.74667 4.5 6.16 4.5C7.13333 4.5 7.98667 4.72 8.72 5.16C9.45333 5.6 10.0267 6.20667 10.44 6.98C10.8667 7.75333 11.08 8.66 11.08 9.7C11.08 10.5 10.9533 11.24 10.7 11.92C10.4467 12.6 10.08 13.1933 9.6 13.7C9.13333 14.1933 8.56 14.5733 7.88 14.84C7.21333 15.1067 6.44667 15.24 5.58 15.24ZM5.58 12.56C6.06 12.56 6.47333 12.4467 6.82 12.22C7.16667 11.98 7.43333 11.66 7.62 11.26C7.82 10.8467 7.92 10.3867 7.92 9.88C7.92 9.37333 7.82 8.92 7.62 8.52C7.43333 8.12 7.16667 7.80667 6.82 7.58C6.47333 7.34 6.06 7.22 5.58 7.22C5.1 7.22 4.68 7.34 4.32 7.58C3.97333 7.80667 3.70667 8.12 3.52 8.52C3.33333 8.92 3.24 9.37333 3.24 9.88C3.24 10.3867 3.33333 10.8467 3.52 11.26C3.70667 11.66 3.97333 11.98 4.32 12.22C4.68 12.4467 5.1 12.56 5.58 12.56ZM17.9939 15.24C16.9406 15.24 15.9939 15.0067 15.1539 14.54C14.3139 14.0733 13.6472 13.4333 13.1539 12.62C12.6739 11.8067 12.4339 10.8933 12.4339 9.88C12.4339 8.85333 12.6739 7.94 13.1539 7.14C13.6472 6.32667 14.3139 5.68667 15.1539 5.22C15.9939 4.74 16.9406 4.5 17.9939 4.5C19.0472 4.5 19.9872 4.74 20.8139 5.22C21.6539 5.68667 22.3139 6.32667 22.7939 7.14C23.2872 7.94 23.5339 8.85333 23.5339 9.88C23.5339 10.8933 23.2872 11.8067 22.7939 12.62C22.3139 13.4333 21.6539 14.0733 20.8139 14.54C19.9739 15.0067 19.0339 15.24 17.9939 15.24ZM17.9939 12.54C18.4872 12.54 18.9139 12.42 19.2739 12.18C19.6339 11.94 19.9139 11.62 20.1139 11.22C20.3139 10.82 20.4139 10.3667 20.4139 9.86C20.4139 9.36667 20.3139 8.92 20.1139 8.52C19.9139 8.12 19.6339 7.8 19.2739 7.56C18.9139 7.32 18.4872 7.2 17.9939 7.2C17.5006 7.2 17.0672 7.32 16.6939 7.56C16.3339 7.8 16.0539 8.12 15.8539 8.52C15.6539 8.92 15.5539 9.36667 15.5539 9.86C15.5539 10.3667 15.6539 10.82 15.8539 11.22C16.0539 11.62 16.3339 11.94 16.6939 12.18C17.0672 12.42 17.5006 12.54 17.9939 12.54ZM29.4948 15.24C28.5882 15.24 27.7882 15.0067 27.0948 14.54C26.4015 14.0733 25.8615 13.4467 25.4748 12.66C25.0882 11.86 24.8948 10.96 24.8948 9.96C24.8948 8.92 25.1215 7.99333 25.5748 7.18C26.0282 6.35333 26.6682 5.7 27.4948 5.22C28.3348 4.74 29.3215 4.5 30.4548 4.5C31.6015 4.5 32.5748 4.74 33.3748 5.22C34.1882 5.68667 34.8082 6.33333 35.2348 7.16C35.6748 7.97333 35.8948 8.88667 35.8948 9.9V15H32.8548V13.36H32.7748C32.5882 13.72 32.3482 14.0467 32.0548 14.34C31.7615 14.62 31.4015 14.84 30.9748 15C30.5615 15.16 30.0682 15.24 29.4948 15.24ZM30.4148 12.56C30.8815 12.56 31.2882 12.4467 31.6348 12.22C31.9948 11.98 32.2682 11.6533 32.4548 11.24C32.6415 10.8267 32.7348 10.3667 32.7348 9.86C32.7348 9.36667 32.6415 8.92 32.4548 8.52C32.2682 8.12 31.9948 7.80667 31.6348 7.58C31.2882 7.34 30.8815 7.22 30.4148 7.22C29.9348 7.22 29.5148 7.34 29.1548 7.58C28.7948 7.80667 28.5215 8.12 28.3348 8.52C28.1482 8.92 28.0548 9.36667 28.0548 9.86C28.0548 10.3667 28.1482 10.8267 28.3348 11.24C28.5215 11.6533 28.7948 11.98 29.1548 12.22C29.5148 12.4467 29.9348 12.56 30.4148 12.56ZM38.1073 15V7.76C38.1073 6.82667 38.374 6.09333 38.9073 5.56C39.4407 5.02667 40.1807 4.76 41.1273 4.76H44.1073V7.28H41.8873C41.7007 7.28 41.5407 7.34667 41.4073 7.48C41.274 7.6 41.2073 7.76 41.2073 7.96V15H38.1073ZM50.512 15.24C49.6587 15.24 48.8854 15.1067 48.192 14.84C47.512 14.5733 46.9387 14.1933 46.472 13.7C46.0054 13.1933 45.6454 12.6 45.392 11.92C45.1387 11.24 45.012 10.5 45.012 9.7C45.012 8.66 45.2187 7.75333 45.632 6.98C46.0587 6.20667 46.6387 5.6 47.372 5.16C48.1187 4.72 48.972 4.5 49.932 4.5C50.3454 4.5 50.732 4.55333 51.092 4.66C51.4654 4.76667 51.7987 4.92667 52.092 5.14C52.3987 5.34 52.652 5.58 52.852 5.86H52.912V0.4H56.012V9.68C56.012 10.8 55.7854 11.78 55.332 12.62C54.8787 13.46 54.2387 14.1067 53.412 14.56C52.5987 15.0133 51.632 15.24 50.512 15.24ZM50.512 12.56C50.992 12.56 51.4054 12.4467 51.752 12.22C52.112 11.98 52.3854 11.66 52.572 11.26C52.7587 10.8467 52.852 10.3867 52.852 9.88C52.852 9.37333 52.7587 8.92 52.572 8.52C52.3854 8.12 52.112 7.80667 51.752 7.58C51.4054 7.34 50.992 7.22 50.512 7.22C50.0454 7.22 49.632 7.34 49.272 7.58C48.912 7.80667 48.6387 8.12 48.452 8.52C48.2654 8.92 48.172 9.37333 48.172 9.88C48.172 10.3867 48.2654 10.8467 48.452 11.26C48.6387 11.66 48.912 11.98 49.272 12.22C49.632 12.4467 50.0454 12.56 50.512 12.56ZM58.2459 15V0.4H61.3459V15H58.2459ZM67.1966 19.06V15.06C66.4499 14.8733 65.8099 14.5733 65.2766 14.16C64.7432 13.7333 64.3366 13.22 64.0566 12.62C63.7766 12.0067 63.6366 11.3467 63.6366 10.64V4.74H66.7366V10.54C66.7366 10.9 66.8232 11.2333 66.9966 11.54C67.1699 11.8467 67.4032 12.0933 67.6966 12.28C68.0032 12.4533 68.3432 12.54 68.7166 12.54C69.1032 12.54 69.4432 12.4533 69.7366 12.28C70.0432 12.0933 70.2832 11.8467 70.4566 11.54C70.6299 11.2333 70.7166 10.9 70.7166 10.54V4.74H73.8166V10.64C73.8166 11.3467 73.6766 12 73.3966 12.6C73.1299 13.2 72.7299 13.7133 72.1966 14.14C71.6766 14.5667 71.0432 14.8667 70.2966 15.04V19.06H67.1966Z" fill="#06111C"/>
</svg>
